<?xml version="1.0" encoding="utf-8"?>
<!-- Generator: Adobe Illustrator 16.0.0, SVG Export Plug-In . SVG Version: 6.00 Build 0)  -->
<!DOCTYPE svg PUBLIC "-//W3C//DTD SVG 1.1//EN" "http://www.w3.org/Graphics/SVG/1.1/DTD/svg11.dtd">
<svg version="1.1" id="Layer_1" xmlns="http://www.w3.org/2000/svg" xmlns:xlink="http://www.w3.org/1999/xlink" x="0px" y="0px"
	 width="612px" height="792px" viewBox="0 0 612 792" enable-background="new 0 0 612 792" xml:space="preserve">
<title>icon-privacy</title>
<path fill="#007055" d="M306,71.64l244.8,113.832v303.613c0,38.128-47.368,95.9-126.745,154.408
	c-37.719,27.473-77.15,52.514-118.055,74.97c-40.905-22.455-80.336-47.496-118.055-74.97C108.385,584.985,61.2,527.213,61.2,489.085
	V185.472L306,71.64 M306,4.32L0,146.426v342.72C0,636.699,306,787.68,306,787.68s306-150.98,306-298.595v-342.72L306,4.32z
	 M443.455,425.988c0-79.56-275.4-79.56-275.4,0v110.16h275.4V425.988z M306,201.69c-43.433,0-78.642,35.209-78.642,78.642
	s35.209,78.642,78.642,78.642s78.642-35.209,78.642-78.642l0,0C384.642,236.899,349.433,201.69,306,201.69"/>
</svg>
